<?xml version="1.0" standalone="no"?>
<!DOCTYPE svg PUBLIC "-//W3C//DTD SVG 20010904//EN"
 "http://www.w3.org/TR/2001/REC-SVG-20010904/DTD/svg10.dtd">
<svg version="1.0" xmlns="http://www.w3.org/2000/svg"
 width="860.000000pt" height="573.000000pt" viewBox="0 0 860.000000 573.000000"
 preserveAspectRatio="xMidYMid meet">

<g transform="translate(0.000000,573.000000) scale(0.100000,-0.100000)"
fill="#000000" stroke="none">
<path d="M3260 5314 c-183 -27 -341 -81 -675 -229 -471 -209 -608 -246 -1210
-329 -306 -42 -378 -58 -446 -99 -130 -77 -217 -299 -254 -642 -17 -159 -70
-484 -105 -650 -14 -65 -32 -116 -51 -145 -38 -61 -56 -138 -69 -295 -11 -132
-25 -230 -60 -410 -35 -184 -43 -295 -45 -685 -1 -319 -5 -400 -19 -470 -38
-187 -31 -423 18 -611 28 -107 51 -148 100 -175 109 -61 583 -135 1131 -175
101 -8 912 -13 2501 -16 l2350 -5 187 31 c781 129 1332 364 1590 678 84 103
91 124 91 283 1 153 -11 205 -68 284 -18 26 -38 64 -44 84 -6 20 -20 69 -31
107 -58 200 -226 356 -446 412 -61 16 -109 18 -374 15 -398 -3 -624 19 -946
94 -291 67 -294 69 -930 463 l-390 241 -98 0 -99 0 -297 190 -296 190 -67 118
c-36 64 -72 128 -78 141 -7 14 -16 77 -21 140 -10 137 -28 212 -73 301 -38 75
-41 84 -61 245 -44 340 -179 643 -365 818 -94 89 -135 107 -241 106 -46 -1
-95 -3 -109 -5z m161 -269 c20 -13 58 -52 83 -86 134 -178 201 -383 226 -689
14 -176 16 -186 55 -229 43 -48 62 -86 70 -144 l7 -47 -190 -194 c-260 -265
-269 -278 -220 -333 54 -59 89 -41 293 158 l144 140 17 -33 c9 -18 48 -86 86
-151 l70 -119 -64 -69 -63 -69 -230 5 c-252 6 -274 8 -304 36 -34 32 -41 85
-41 321 l0 228 170 85 170 85 0 118 c0 104 -2 121 -20 139 -27 30 -53 36 -97
24 -63 -18 -121 -14 -133 8 -5 11 -7 26 -4 34 6 16 63 43 152 72 61 19 72 36
72 103 0 130 -52 280 -125 361 -51 56 -144 102 -219 108 -231 18 -925 -232
-2055 -741 -178 -80 -328 -146 -333 -146 -21 0 35 262 75 351 39 89 7 78 429
139 611 88 805 142 1228 337 233 108 348 152 505 193 140 37 198 38 246 5z
m-58 -319 c18 -7 42 -24 54 -37 25 -28 68 -119 78 -166 6 -32 5 -33 -53 -61
-88 -43 -118 -67 -141 -115 -56 -115 8 -262 129 -298 22 -7 40 -15 40 -19 0
-13 -181 -107 -620 -323 -239 -118 -470 -238 -512 -266 -133 -89 -249 -229
-319 -385 l-34 -76 -100 0 c-165 0 -365 34 -620 105 -217 61 -455 147 -455
165 0 41 103 540 116 561 27 44 1206 555 1748 759 408 153 597 196 689 156z
m-173 -1190 l0 -133 -177 -86 c-240 -115 -433 -197 -610 -257 -150 -51 -213
-62 -213 -37 0 21 93 147 146 199 27 26 87 70 134 98 122 74 699 362 711 355
5 -4 9 -66 9 -139z m47 -376 c45 -64 109 -115 162 -130 20 -5 148 -14 283 -19
321 -13 338 -19 568 -209 187 -154 377 -284 554 -378 57 -30 112 -64 122 -75
17 -19 19 -41 22 -208 6 -347 -34 -566 -153 -826 -28 -62 -38 -75 -57 -75
-268 2 -1561 66 -1903 95 -266 22 -300 27 -324 49 -13 11 -106 188 -206 391
-149 302 -193 382 -240 438 -32 37 -56 69 -54 71 2 2 114 -37 249 -86 729
-263 1044 -357 1315 -388 120 -13 361 -13 427 1 122 26 210 86 252 171 22 45
26 65 26 142 -1 144 -22 216 -96 322 -49 69 -125 142 -235 224 -89 66 -223
146 -261 155 -34 9 -36 -4 -9 -73 26 -65 51 -189 51 -249 0 -73 -18 -121 -62
-169 -60 -65 -106 -79 -268 -79 l-135 0 -305 88 c-168 49 -372 108 -455 133
-82 24 -460 134 -840 244 -719 210 -958 280 -962 284 -1 1 3 19 9 40 14 45
-10 49 258 -43 410 -141 643 -186 940 -185 172 0 211 4 325 28 235 49 524 156
808 300 78 40 145 72 149 72 4 -1 24 -26 45 -56z m1113 -56 c74 -47 138 -89
142 -93 5 -4 -17 -31 -47 -61 l-54 -54 -48 45 c-26 25 -87 73 -135 108 -49 35
-88 67 -88 71 0 11 72 70 85 70 6 0 71 -39 145 -86z m349 -230 c17 -22 21 -41
21 -100 0 -112 1 -111 -96 -47 -46 31 -84 59 -84 63 0 13 111 110 125 110 7 0
23 -12 34 -26z m395 -118 c53 -32 96 -60 96 -61 0 -2 -41 -44 -92 -93 l-92
-90 -36 14 c-82 35 -80 30 -80 170 l0 126 54 -4 c45 -4 73 -15 150 -62z
m-4028 -245 c361 -145 571 -233 727 -304 125 -58 157 -99 296 -377 130 -261
206 -429 197 -437 -21 -21 -1648 176 -1675 203 -3 3 -7 138 -9 299 -3 227 0
320 13 412 26 194 58 353 70 353 6 0 178 -67 381 -149z m4395 17 l119 -73 -67
-67 -66 -67 -51 21 c-124 48 -202 82 -211 90 -6 5 22 39 70 88 44 44 81 80 84
80 2 0 57 -33 122 -72z m363 -224 c79 -47 165 -90 199 -98 17 -4 31 -16 38
-33 12 -33 1 -93 -18 -93 -15 0 -401 155 -411 165 -3 3 14 26 38 50 54 55 76
57 154 9z m-567 -90 c138 -54 640 -262 666 -276 16 -8 14 -13 -19 -56 -79
-103 -167 -323 -208 -522 l-22 -105 -55 -8 c-62 -10 -615 -3 -641 8 -15 6 -14
13 9 73 91 236 133 472 133 741 0 106 7 191 16 191 2 0 57 -21 121 -46z m1125
-108 c275 -63 497 -86 831 -86 118 0 197 -4 197 -10 0 -23 -225 -66 -450 -85
-102 -9 -211 -20 -242 -26 -115 -20 -225 -69 -358 -158 -82 -55 -94 -59 -128
-35 -20 14 -22 24 -22 97 0 83 17 291 25 315 6 17 25 15 147 -12z m1404 -155
c85 -52 168 -235 126 -278 -81 -80 -656 -238 -1142 -313 -286 -44 -904 -109
-917 -96 -24 23 125 455 165 480 6 3 13 -7 17 -26 18 -83 82 -158 152 -177 51
-14 130 -13 173 2 19 7 72 39 116 70 139 97 197 115 474 141 341 33 534 80
706 170 47 26 89 46 92 46 4 0 21 -9 38 -19z m239 -457 c28 -29 12 -48 -80
-94 -402 -201 -1340 -348 -2430 -381 -723 -22 -1685 7 -2545 76 -800 65 -2057
202 -2294 251 -77 15 -92 24 -82 50 8 20 -15 22 506 -44 808 -104 1547 -175
2300 -222 1188 -73 2183 -75 2870 -5 639 66 1257 196 1605 339 126 51 128 52
150 30z m-91 -322 c-115 -107 -344 -237 -557 -316 -316 -117 -716 -199 -1060
-217 -286 -14 -4281 -6 -4607 10 -436 21 -724 51 -983 102 -124 24 -139 37
-157 136 -16 95 -31 286 -22 294 4 4 178 -15 387 -42 934 -118 1534 -180 2230
-229 1490 -104 2763 -87 3729 51 375 53 652 117 931 213 72 24 137 45 145 45
8 0 -8 -21 -36 -47z"/>
<path d="M2501 4089 c-63 -40 -118 -68 -126 -65 -11 4 -15 21 -15 56 0 63 -13
70 -75 40 -34 -16 -75 -25 -154 -30 -121 -9 -175 -22 -241 -55 -55 -28 -130
-106 -160 -166 -38 -75 -66 -104 -135 -139 -74 -37 -74 -33 11 -83 56 -34 62
-27 -99 -126 -64 -41 -120 -78 -124 -84 -8 -14 262 -2 387 18 182 28 339 82
435 150 128 91 283 277 388 467 37 67 44 88 29 88 -5 0 -59 -32 -121 -71z"/>
</g>
</svg>
